<svg id="Component_16" data-name="Component 16" xmlns="http://www.w3.org/2000/svg" xmlns:xlink="http://www.w3.org/1999/xlink" width="300" height="61.022" viewBox="0 0 300 61.022">
  <defs>
    <clipPath id="clip-path">
      <rect id="Rectangle_10559" data-name="Rectangle 10559" width="300" height="61.022" fill="none"/>
    </clipPath>
  </defs>
  <g id="Group_33519" data-name="Group 33519" clip-path="url(#clip-path)">
    <path id="Path_14361" data-name="Path 14361" d="M812.265,18.33c-5.255,0-7.768-3.326-7.768-9.14,0-5.712,3-9.19,7.844-9.19,5.281,0,7.9,3.5,7.9,9.114,0,5.788-2.488,9.216-7.971,9.216m.1-14.877c-2.59,0-3.833,2.539-3.833,5.585,0,3.554.914,5.814,3.859,5.814,2.92,0,3.808-2.691,3.808-5.662-.025-3.072-.736-5.737-3.833-5.737" transform="translate(-627.749 0)" fill="#fff"/>
    <path id="Path_14362" data-name="Path 14362" d="M892.377,18.952h-2.691c-.406,0-.584-.127-.584-.533V5.852c0-2.412,1.168-4.7,4.671-4.7h7.413c.432,0,.508.127.508.609V3.922c0,.431-.127.558-.508.558h-6.575c-1.32,0-1.65.66-1.65,1.574V8.39h7.21c.406,0,.482.1.482.609v1.98c0,.406-.1.584-.482.584h-7.21v6.854c0,.457-.076.533-.584.533" transform="translate(-693.766 -0.901)" fill="#fff"/>
    <path id="Path_14363" data-name="Path 14363" d="M958.84,18.952h-2.691c-.406,0-.584-.127-.584-.533V5.852c0-2.412,1.168-4.7,4.671-4.7h7.413c.432,0,.508.127.508.609V3.922c0,.431-.127.558-.508.558h-6.575c-1.32,0-1.65.66-1.65,1.574V8.39h7.21c.406,0,.482.1.482.609v1.98c0,.406-.1.584-.482.584h-7.21v6.854c0,.457-.076.533-.584.533" transform="translate(-745.627 -0.901)" fill="#fff"/>
    <path id="Path_14364" data-name="Path 14364" d="M1026.368,19.041h-2.691c-.406,0-.584-.127-.584-.533V1.8c0-.406.177-.533.584-.533h2.691c.507,0,.609.1.609.533v16.7c0,.432-.1.533-.609.533" transform="translate(-798.32 -0.991)" fill="#fff"/>
    <path id="Path_14365" data-name="Path 14365" d="M1066.583,14.028c.482-.2.635-.076.787.3l.863,1.828c.228.482.152.66-.152.838a11.087,11.087,0,0,1-5.864,1.422c-5.534,0-8-3.427-8-9.063,0-5.534,3.3-9.241,8.175-9.241a10.04,10.04,0,0,1,4.976,1.092c.381.2.432.33.2.888l-.787,1.752c-.178.457-.279.558-.761.381a9.591,9.591,0,0,0-3.453-.66c-2.793,0-4.29,2.488-4.29,5.788s1.092,5.56,4.392,5.56a10.57,10.57,0,0,0,3.909-.888" transform="translate(-822.608 -0.091)" fill="#fff"/>
    <path id="Path_14366" data-name="Path 14366" d="M1132.637,19.041h-2.691c-.406,0-.583-.127-.583-.533V1.8c0-.406.177-.533.583-.533h2.691c.508,0,.609.1.609.533v16.7c0,.432-.1.533-.609.533" transform="translate(-881.241 -0.991)" fill="#fff"/>
    <path id="Path_14367" data-name="Path 14367" d="M1167.56,15.155h-5.813l-.99,3.224c-.1.33-.228.482-.711.482h-2.971c-.355,0-.431-.254-.355-.508L1162,2.436a1.6,1.6,0,0,1,1.853-1.4h1.523c1.142,0,1.574.152,1.98,1.4l5.28,15.918a.347.347,0,0,1-.33.508h-3.021c-.38,0-.635-.051-.736-.406Zm-4.9-3.148h3.986l-.965-3.224-.939-3.63h-.153l-.964,3.63Z" transform="translate(-902.568 -0.812)" fill="#fff"/>
    <path id="Path_14368" data-name="Path 14368" d="M1236.4,14.281V1.689c0-.406.178-.533.584-.533h2.691c.508,0,.609.1.609.533V14c0,1.295.686,1.625,1.7,1.625h6.448c.381,0,.482.076.482.533v2.259c0,.381-.127.533-.482.533h-7.337c-3.757,0-4.7-2.361-4.7-4.671" transform="translate(-964.759 -0.902)" fill="#fff"/>
    <path id="Path_14369" data-name="Path 14369" d="M808.815,107.465a13.955,13.955,0,0,1,5.687,1.168c.406.2.432.3.254.813l-.66,1.9c-.177.482-.279.482-.685.381a16.557,16.557,0,0,0-4.6-.812c-1.473,0-2.031.634-2.031,1.4,0,.889.711,1.4,2.97,2.31,3.453,1.345,5.915,2.589,5.915,5.89,0,3.554-2.666,5.306-6.626,5.306a13.564,13.564,0,0,1-6.727-1.6c-.279-.152-.33-.33-.152-.762l.863-2.031c.178-.406.33-.432.711-.279a14.9,14.9,0,0,0,5.027,1.193c2.132,0,2.767-.863,2.767-1.777,0-1.015-.66-1.6-2.818-2.412-3.58-1.371-5.94-2.717-5.94-5.534,0-2.869,1.9-5.154,6.042-5.154" transform="translate(-625.847 -83.855)" fill="#fff"/>
    <path id="Path_14370" data-name="Path 14370" d="M882.177,112.152h-4.6V126.09c0,.432-.1.533-.609.533h-2.716c-.406,0-.584-.127-.584-.533V112.152h-4.493c-.355,0-.482-.152-.482-.508v-2.259c0-.431.1-.533.482-.533h13c.406,0,.508.1.508.533v2.259c0,.356-.152.508-.508.508" transform="translate(-677.844 -84.937)" fill="#fff"/>
    <path id="Path_14371" data-name="Path 14371" d="M945.111,125.911c-5.255,0-7.768-3.326-7.768-9.14,0-5.712,3-9.19,7.845-9.19,5.281,0,7.9,3.5,7.9,9.114,0,5.788-2.488,9.216-7.972,9.216m.1-14.877c-2.59,0-3.834,2.539-3.834,5.585,0,3.554.914,5.814,3.859,5.814,2.919,0,3.808-2.691,3.808-5.662-.025-3.072-.736-5.737-3.833-5.737" transform="translate(-731.409 -83.945)" fill="#fff"/>
    <path id="Path_14372" data-name="Path 14372" d="M1033.364,118.206a3.4,3.4,0,0,1,1.8,2.666l1.295,5.077c.051.2.025.584-.381.584h-2.665c-.381,0-.863,0-1.015-.508l-1.117-4.494a2.487,2.487,0,0,0-2.767-2.209h-2.463V126c0,.457-.076.533-.584.533h-2.717c-.406,0-.583-.127-.583-.533V110.285c0-1.015.3-1.548,1.523-1.548h6.22c3.656,0,5.788,2.031,5.788,5.154a4.673,4.673,0,0,1-2.361,4.189Zm-3.834-6.067h-3.453V116.2h3.376a2.015,2.015,0,0,0,2.285-2.056,1.926,1.926,0,0,0-2.209-2.006" transform="translate(-797.598 -84.847)" fill="#fff"/>
    <path id="Path_14373" data-name="Path 14373" d="M1109.671,126.533h-7.515c-3.757,0-4.7-2.361-4.7-4.671v-8.429c0-2.412,1.244-4.7,4.671-4.7h7.286c.406,0,.482.127.482.609V111.5c0,.431-.1.558-.482.558h-6.448c-1.32,0-1.65.686-1.65,1.574v1.955h7.286c.406,0,.482.127.482.609v1.98c0,.406-.076.584-.482.584h-7.286v2.894c0,1.168.584,1.523,1.65,1.523h6.7c.432,0,.508.1.508.609v2.158c0,.406-.1.584-.508.584" transform="translate(-856.347 -84.847)" fill="#fff"/>
    <path id="Path_14374" data-name="Path 14374" d="M946.249,229.84a.853.853,0,0,0-1.707,0,.853.853,0,0,0,1.707,0m-1.557,7.447h1.384a.078.078,0,0,0,.078-.078v-5.592a.078.078,0,0,0-.078-.078h-1.384a.078.078,0,0,0-.078.078v5.592a.078.078,0,0,0,.078.078m-18.975-5.67a.078.078,0,0,1,.078-.078h1.371a.078.078,0,0,1,.078.078v5.592a.078.078,0,0,1-.078.078h-1.371a.078.078,0,0,1-.078-.078v-.421a2.125,2.125,0,0,1-1.548.463h-.086a2.8,2.8,0,0,1-2.017-.748,2.972,2.972,0,0,1-.8-2.184,2.69,2.69,0,0,1,2.852-2.889h.027a2.432,2.432,0,0,1,1.575.422Zm-.3,3.716a1.562,1.562,0,0,0,.334-1.031,1.476,1.476,0,1,0-1.5,1.518,1.573,1.573,0,0,0,1.162-.487m18.356,1.954a.078.078,0,0,0,.078-.078v-1.252a.078.078,0,0,0-.078-.078c-.14,0-.587,0-.68,0-.4-.017-.579-.214-.579-.639V233.1h1.259a.078.078,0,0,0,.078-.078v-1.39a.078.078,0,0,0-.078-.078h-1.248v-1.216a.078.078,0,0,0-.078-.078h-1.385a.078.078,0,0,0-.078.078v4.9a1.852,1.852,0,0,0,2.021,2.051h.767Zm7.156-1.793a.079.079,0,0,0-.107-.005,1.512,1.512,0,0,1-.941.345,1.469,1.469,0,0,1,0-2.937,1.513,1.513,0,0,1,.941.345.079.079,0,0,0,.107-.005l.887-.935a.08.08,0,0,0,0-.112,2.631,2.631,0,0,0-1.954-.77,2.946,2.946,0,1,0,0,5.892,2.631,2.631,0,0,0,1.954-.77.08.08,0,0,0,0-.112Zm-29.307-5.34v-1.345a.1.1,0,0,0-.1-.1h-4.982a.1.1,0,0,0-.1.1v8.38a.1.1,0,0,0,.1.1h1.345a.1.1,0,0,0,.1-.1v-3.42a.1.1,0,0,1,.1-.1h2.509a.1.1,0,0,0,.1-.1v-1.345a.1.1,0,0,0-.1-.1h-2.509a.1.1,0,0,1-.1-.1v-1.685a.1.1,0,0,1,.1-.1h3.442a.1.1,0,0,0,.1-.1m17.03,1.463a.078.078,0,0,1,.078-.078H940.1a.078.078,0,0,1,.078.078v5.592a.078.078,0,0,1-.078.078h-1.371a.078.078,0,0,1-.078-.078v-.421a2.123,2.123,0,0,1-1.548.463h-.086A2.8,2.8,0,0,1,935,236.5a2.972,2.972,0,0,1-.8-2.184,2.69,2.69,0,0,1,2.852-2.889h.027a2.432,2.432,0,0,1,1.575.422Zm-.3,3.716a1.563,1.563,0,0,0,.334-1.031,1.476,1.476,0,1,0-1.5,1.518,1.573,1.573,0,0,0,1.162-.487m13.9.942a.079.079,0,0,0,.008.1,3.241,3.241,0,0,0,2.487.933,2.3,2.3,0,0,0,2.24-1.142,1.7,1.7,0,0,0,.153-.715c0-1.471-1.27-1.742-2.376-1.813-.883-.056-.883-.366-.883-.467,0-.373.6-.413.854-.413a1.684,1.684,0,0,1,1.175.389.078.078,0,0,0,.111-.007l.781-.909a.079.079,0,0,0-.009-.111,2.958,2.958,0,0,0-2.08-.676,3.1,3.1,0,0,0-1.54.384,1.551,1.551,0,0,0-.811,1.386c0,1.023.817,1.648,2.3,1.759.839.048.947.292.947.5,0,.307-.406.467-.806.467h-.035a2.547,2.547,0,0,1-1.685-.644.078.078,0,0,0-.117.009Zm-21.074-4.8a2.42,2.42,0,0,1,2.362,2.717v3.018a.078.078,0,0,1-.078.078h-1.384a.078.078,0,0,1-.078-.078V234.2a1.16,1.16,0,0,0-1.166-1.306h-.028a1.274,1.274,0,0,0-1.213,1.269v3.043a.078.078,0,0,1-.078.078h-1.373a.078.078,0,0,1-.078-.078v-5.581a.078.078,0,0,1,.078-.078h1.327a.078.078,0,0,1,.078.078l0,.5a2.375,2.375,0,0,1,1.63-.651" transform="translate(-715.104 -178.463)" fill="#fff"/>
    <path id="Path_14375" data-name="Path 14375" d="M850.683,222.722a.058.058,0,0,0,.074-.021L852.5,220a.06.06,0,0,0-.035-.088c-2.513-.867-4.864.8-8.451.889a.15.15,0,0,0-.123.228l3.873,5.977a.092.092,0,0,0,.174-.054l-.834-3.785a.067.067,0,0,1,.046-.075c.3-.111,2.494-.855,3.532-.373m4.183-6.391-1.435,2.229a.11.11,0,0,1-.138.044c-3.312-1.666-7.134,1.4-10.507.667a.12.12,0,0,1-.076-.051l-2.174-3.347a.15.15,0,0,1,.155-.229,19.735,19.735,0,0,0,2.549.419c5.117.276,7.889-2.794,11.6.115a.115.115,0,0,1,.029.153" transform="translate(-655.85 -167.698)" fill="#fff"/>
    <path id="Path_14376" data-name="Path 14376" d="M1120.594,240.618h-5.441V233.25h5.41V234.4h-4.231v1.989h4.062v1.094h-4.062v1.979h4.262Z" transform="translate(-870.154 -182.005)" fill="#fff"/>
    <path id="Path_14377" data-name="Path 14377" d="M1146.9,243.167h1.315v.032l-1.747,2.515,1.863,2.61v.032h-1.305l-1.273-1.884-1.273,1.884h-1.3v-.032l1.863-2.61-1.747-2.515v-.032h1.305l1.157,1.852Z" transform="translate(-892.021 -189.743)" fill="#fff"/>
    <path id="Path_14378" data-name="Path 14378" d="M1173.387,247.066a1.676,1.676,0,0,0,.658-.127,1.619,1.619,0,0,0,.521-.347,1.54,1.54,0,0,0,.342-.526,1.812,1.812,0,0,0,.121-.674,1.648,1.648,0,0,0-.442-1.194,1.591,1.591,0,0,0-1.2-.458,1.736,1.736,0,0,0-.679.126,1.465,1.465,0,0,0-.51.353,1.615,1.615,0,0,0-.326.526,1.779,1.779,0,0,0-.116.647,1.751,1.751,0,0,0,.121.653,1.63,1.63,0,0,0,.337.531,1.571,1.571,0,0,0,.516.358,1.62,1.62,0,0,0,.657.132m-2.81,3.326v-7.6h1.021l.063.842a1.927,1.927,0,0,1,.8-.71,2.359,2.359,0,0,1,1.031-.237,2.7,2.7,0,0,1,1.063.205,2.512,2.512,0,0,1,.832.563,2.471,2.471,0,0,1,.536.858,3.014,3.014,0,0,1,.19,1.079,3.167,3.167,0,0,1-.184,1.1,2.549,2.549,0,0,1-.521.863,2.289,2.289,0,0,1-.826.563,2.858,2.858,0,0,1-1.089.2,3.12,3.12,0,0,1-.5-.042,2.184,2.184,0,0,1-.505-.147,2.055,2.055,0,0,1-.463-.274,1.514,1.514,0,0,1-.363-.41v3.147Z" transform="translate(-913.401 -189.369)" fill="#fff"/>
    <path id="Path_14379" data-name="Path 14379" d="M1203.9,244.86a1.245,1.245,0,0,0-.463-.942,1.735,1.735,0,0,0-1.073-.31,1.769,1.769,0,0,0-1.042.31,1.439,1.439,0,0,0-.568.942Zm-3.168.916a1.375,1.375,0,0,0,.521.952,1.841,1.841,0,0,0,1.174.353,2.647,2.647,0,0,0,.831-.142,1.5,1.5,0,0,0,.674-.416l.7.684a2.272,2.272,0,0,1-.463.389,3.031,3.031,0,0,1-.553.279,3.159,3.159,0,0,1-.605.163,3.726,3.726,0,0,1-.61.052,3.258,3.258,0,0,1-1.157-.194,2.406,2.406,0,0,1-1.442-1.421,3.071,3.071,0,0,1-.2-1.131,2.9,2.9,0,0,1,.2-1.089,2.467,2.467,0,0,1,1.416-1.416,2.968,2.968,0,0,1,1.11-.2,3.187,3.187,0,0,1,1.142.195,2.211,2.211,0,0,1,.863.584,2.375,2.375,0,0,1,.516.979,3.848,3.848,0,0,1,.089,1.379Z" transform="translate(-936.053 -189.332)" fill="#fff"/>
    <path id="Path_14380" data-name="Path 14380" d="M1229.932,242.756l.074.684a1.375,1.375,0,0,1,.695-.647,2.372,2.372,0,0,1,.831-.153,2.155,2.155,0,0,1,.721.121,1.655,1.655,0,0,1,.563.321l-.494.947a1.581,1.581,0,0,0-.406-.237,1.433,1.433,0,0,0-.51-.079,1.6,1.6,0,0,0-.537.089,1.234,1.234,0,0,0-.747.705,1.571,1.571,0,0,0-.116.626v2.81h-1.084v-5.188Z" transform="translate(-958.928 -189.332)" fill="#fff"/>
    <path id="Path_14381" data-name="Path 14381" d="M1250.633,240.581h-1.084v-5.21h1.084Zm-1.21-6.714a.592.592,0,0,1,.21-.5.738.738,0,0,1,.926,0,.593.593,0,0,1,.211.5.607.607,0,0,1-.211.505.721.721,0,0,1-.926,0,.607.607,0,0,1-.21-.505" transform="translate(-974.925 -181.968)" fill="#fff"/>
    <path id="Path_14382" data-name="Path 14382" d="M1264.5,244.86a1.245,1.245,0,0,0-.463-.942,1.734,1.734,0,0,0-1.073-.31,1.768,1.768,0,0,0-1.042.31,1.439,1.439,0,0,0-.568.942Zm-3.168.916a1.376,1.376,0,0,0,.521.952,1.841,1.841,0,0,0,1.174.353,2.647,2.647,0,0,0,.831-.142,1.5,1.5,0,0,0,.674-.416l.7.684a2.265,2.265,0,0,1-.463.389,3.03,3.03,0,0,1-.552.279,3.159,3.159,0,0,1-.605.163,3.729,3.729,0,0,1-.61.052,3.259,3.259,0,0,1-1.157-.194,2.4,2.4,0,0,1-1.442-1.421,3.071,3.071,0,0,1-.2-1.131,2.9,2.9,0,0,1,.2-1.089,2.467,2.467,0,0,1,1.416-1.416,2.969,2.969,0,0,1,1.11-.2,3.187,3.187,0,0,1,1.142.195,2.211,2.211,0,0,1,.863.584,2.377,2.377,0,0,1,.516.979,3.84,3.84,0,0,1,.089,1.379Z" transform="translate(-983.336 -189.332)" fill="#fff"/>
    <path id="Path_14383" data-name="Path 14383" d="M1293.455,247.981V245.2a1.616,1.616,0,0,0-.363-1.095,1.294,1.294,0,0,0-1.037-.421,1.376,1.376,0,0,0-1.052.468,1.559,1.559,0,0,0-.295.505,1.745,1.745,0,0,0-.105.605v2.715h-1.084v-5.2h.989l.063.758a2.24,2.24,0,0,1,1.747-.853,2.331,2.331,0,0,1,.879.163,1.98,1.98,0,0,1,.7.479,2.258,2.258,0,0,1,.474.784,3.092,3.092,0,0,1,.174,1.079v2.789Z" transform="translate(-1006.212 -189.369)" fill="#fff"/>
    <path id="Path_14384" data-name="Path 14384" d="M1322.006,247.281a2.674,2.674,0,0,1-.921.626,2.9,2.9,0,0,1-1.047.184,3.2,3.2,0,0,1-1.058-.174,2.483,2.483,0,0,1-.874-.516,2.406,2.406,0,0,1-.589-.852,3.359,3.359,0,0,1,0-2.368,2.4,2.4,0,0,1,.589-.852,2.492,2.492,0,0,1,.868-.516,3.185,3.185,0,0,1,1.063-.174,2.7,2.7,0,0,1,.994.179,2.653,2.653,0,0,1,.879.589l-.684.705a1.732,1.732,0,0,0-.563-.332,1.829,1.829,0,0,0-.616-.111,1.753,1.753,0,0,0-.652.121,1.588,1.588,0,0,0-.532.342,1.549,1.549,0,0,0-.353.531,2.023,2.023,0,0,0,.005,1.421,1.549,1.549,0,0,0,.358.526,1.443,1.443,0,0,0,.526.321,1.915,1.915,0,0,0,.637.105,2.012,2.012,0,0,0,.658-.11,1.436,1.436,0,0,0,.573-.373Z" transform="translate(-1027.891 -189.332)" fill="#fff"/>
    <path id="Path_14385" data-name="Path 14385" d="M1345.4,244.86a1.245,1.245,0,0,0-.463-.942,1.735,1.735,0,0,0-1.073-.31,1.769,1.769,0,0,0-1.042.31,1.438,1.438,0,0,0-.568.942Zm-3.168.916a1.376,1.376,0,0,0,.521.952,1.841,1.841,0,0,0,1.174.353,2.647,2.647,0,0,0,.831-.142,1.5,1.5,0,0,0,.674-.416l.705.684a2.264,2.264,0,0,1-.463.389,3.023,3.023,0,0,1-.552.279,3.154,3.154,0,0,1-.605.163,3.726,3.726,0,0,1-.61.052,3.259,3.259,0,0,1-1.157-.194,2.406,2.406,0,0,1-1.442-1.421,3.071,3.071,0,0,1-.2-1.131,2.9,2.9,0,0,1,.2-1.089,2.467,2.467,0,0,1,1.416-1.416,2.967,2.967,0,0,1,1.11-.2,3.188,3.188,0,0,1,1.142.195,2.211,2.211,0,0,1,.863.584,2.378,2.378,0,0,1,.516.979,3.848,3.848,0,0,1,.089,1.379Z" transform="translate(-1046.468 -189.332)" fill="#fff"/>
    <path id="Path_14386" data-name="Path 14386" d="M806.007,235.34l-1.558,3.5h3.115ZM808,239.918h-3.989l-.694,1.547H802.06l3.3-7.367h1.284l3.3,7.367H808.7Z" transform="translate(-625.847 -182.667)" fill="#fff"/>
    <rect id="Rectangle_10558" data-name="Rectangle 10558" width="1.094" height="58.538" transform="translate(161.76 0.26)" fill="#fff"/>
    <path id="Path_14387" data-name="Path 14387" d="M34.328,39.146c0,2.841-1.027,4.956-4.412,5.8a55.609,55.609,0,0,1-10.334.786C5.681,45.733.06,41.564.06,27.421L0,3.972C0,3.005.483,2.7,1.39,2.7H7.857c1.209,0,1.45.242,1.45,1.269V27.965c0,6.648,1.934,9.73,9.609,9.73a38.068,38.068,0,0,0,6.285-.484V3.972c0-.967.423-1.269,1.39-1.269H33c1.209,0,1.33.242,1.33,1.269Z" transform="translate(0 -2.109)" fill="#fff"/>
    <path id="Path_14388" data-name="Path 14388" d="M217.228,44.794H199.339c-8.945,0-11.181-5.621-11.181-11.12V13.609c0-5.741,2.961-11.181,11.12-11.181h17.345c.967,0,1.148.3,1.148,1.451V9.015c0,1.028-.242,1.33-1.148,1.33H201.273c-3.143,0-3.928,1.632-3.928,3.747v4.653h17.345c.967,0,1.148.3,1.148,1.45V24.91c0,.967-.181,1.39-1.148,1.39H197.344v6.89c0,2.78,1.39,3.626,3.928,3.626h15.955c1.028,0,1.209.242,1.209,1.451V43.4c0,.967-.242,1.39-1.209,1.39" transform="translate(-146.82 -1.895)" fill="#fff"/>
    <path id="Path_14389" data-name="Path 14389" d="M362.405,44.794H356c-.967,0-1.39-.3-1.39-1.269V13.609c0-5.741,2.78-11.181,11.12-11.181h17.647c1.028,0,1.209.3,1.209,1.451V9.015c0,1.028-.3,1.33-1.209,1.33H367.724c-3.143,0-3.928,1.572-3.928,3.747v5.56h17.164c.967,0,1.148.242,1.148,1.45v4.714c0,.967-.242,1.39-1.148,1.39H363.8V43.525c0,1.088-.181,1.269-1.39,1.269" transform="translate(-276.701 -1.895)" fill="#fff"/>
    <path id="Path_14390" data-name="Path 14390" d="M511.949,35.755H498.11l-2.357,7.675c-.242.786-.544,1.148-1.692,1.148h-7.071c-.846,0-1.027-.6-.846-1.209L498.714,5.476c.846-2.78,1.934-3.264,4.412-3.324h3.626c2.719,0,3.747.363,4.714,3.324l12.571,37.893a.825.825,0,0,1-.786,1.209h-7.192c-.906,0-1.511-.121-1.753-.967ZM500.285,28.26h9.488l-2.3-7.675-2.236-8.642h-.363l-2.3,8.642Z" transform="translate(-379.288 -1.679)" fill="#fff"/>
    <path id="Path_14391" data-name="Path 14391" d="M2.506,236.131v4.458c0,.183-.043.226-.248.226H1.128c-.172,0-.248-.054-.248-.226v-6.568c0-.56.172-.754.7-.754h.452c.431,0,.56.075.808.484L4.67,236.54l.926,1.454H5.65v-4.5c0-.172.043-.226.247-.226H7.028c.183,0,.248.065.248.226v6.579c0,.452-.14.743-.7.743H6.124c-.431,0-.56-.075-.808-.474l-1.723-2.606-1.034-1.6Z" transform="translate(-0.687 -182.018)" fill="#fff"/>
    <path id="Path_14392" data-name="Path 14392" d="M38.739,239.2H36.274l-.42,1.367c-.043.14-.1.2-.3.2h-1.26c-.151,0-.183-.108-.151-.215l2.24-6.751a.679.679,0,0,1,.786-.592h.646c.484,0,.667.065.84.592l2.24,6.751a.147.147,0,0,1-.14.215H39.472c-.161,0-.269-.021-.312-.172Zm-2.078-1.335h1.691l-.409-1.367-.4-1.54H37.48l-.409,1.54Z" transform="translate(-26.632 -181.979)" fill="#fff"/>
    <path id="Path_14393" data-name="Path 14393" d="M68.715,234.716H66.766v5.911c0,.183-.043.226-.259.226H65.355c-.172,0-.248-.054-.248-.226v-5.911H63.2c-.151,0-.2-.065-.2-.215v-.958c0-.183.043-.226.2-.226h5.513c.172,0,.215.043.215.226v.958c0,.151-.065.215-.215.215" transform="translate(-49.157 -182.056)" fill="#fff"/>
    <path id="Path_14394" data-name="Path 14394" d="M95.868,240.852H94.727c-.172,0-.248-.054-.248-.226v-7.085c0-.172.075-.226.248-.226h1.141c.215,0,.258.043.258.226v7.085c0,.183-.043.226-.258.226" transform="translate(-73.722 -182.056)" fill="#fff"/>
    <path id="Path_14395" data-name="Path 14395" d="M111.45,240.551c-2.229,0-3.3-1.41-3.3-3.876,0-2.423,1.271-3.9,3.327-3.9,2.24,0,3.349,1.486,3.349,3.866,0,2.455-1.055,3.909-3.381,3.909m.043-6.31c-1.1,0-1.626,1.077-1.626,2.369,0,1.508.388,2.466,1.637,2.466s1.615-1.141,1.615-2.4c-.011-1.3-.312-2.434-1.626-2.434" transform="translate(-84.393 -181.636)" fill="#fff"/>
    <path id="Path_14396" data-name="Path 14396" d="M146.122,236.131v4.458c0,.183-.043.226-.248.226h-1.131c-.172,0-.248-.054-.248-.226v-6.568c0-.56.172-.754.7-.754h.452c.431,0,.56.075.808.484l1.831,2.789.926,1.454h.054v-4.5c0-.172.043-.226.247-.226h1.131c.183,0,.248.065.248.226v6.579c0,.452-.14.743-.7.743h-.452c-.431,0-.56-.075-.808-.474l-1.723-2.606-1.034-1.6Z" transform="translate(-112.75 -182.018)" fill="#fff"/>
    <path id="Path_14397" data-name="Path 14397" d="M182.357,239.2h-2.466l-.42,1.367c-.043.14-.1.2-.3.2h-1.26c-.151,0-.183-.108-.151-.215l2.24-6.751a.679.679,0,0,1,.786-.592h.646c.484,0,.667.065.84.592l2.24,6.751a.147.147,0,0,1-.14.215h-1.282c-.161,0-.269-.021-.312-.172Zm-2.078-1.335h1.691l-.409-1.367-.4-1.54H181.1l-.409,1.54Z" transform="translate(-138.697 -181.979)" fill="#fff"/>
    <path id="Path_14398" data-name="Path 14398" d="M211.941,238.834v-5.341c0-.172.075-.226.248-.226h1.141c.216,0,.259.043.259.226v5.222c0,.549.291.689.721.689h2.735c.162,0,.2.032.2.226v.958c0,.162-.054.226-.2.226h-3.112a1.776,1.776,0,0,1-1.992-1.981" transform="translate(-165.378 -182.018)" fill="#fff"/>
    <path id="Path_14399" data-name="Path 14399" d="M256.96,234.716h-1.949v5.911c0,.183-.043.226-.259.226H253.6c-.172,0-.248-.054-.248-.226v-5.911h-1.906c-.151,0-.2-.065-.2-.215v-.958c0-.183.043-.226.2-.226h5.513c.172,0,.215.043.215.226v.958c0,.151-.065.215-.215.215" transform="translate(-196.044 -182.056)" fill="#fff"/>
    <path id="Path_14400" data-name="Path 14400" d="M287.47,240.815h-3.187a1.776,1.776,0,0,1-1.992-1.981v-3.575a1.824,1.824,0,0,1,1.981-1.992h3.09c.172,0,.2.054.2.258v.915c0,.183-.043.237-.2.237h-2.735c-.56,0-.7.291-.7.668v.829h3.09c.172,0,.2.054.2.259v.84c0,.172-.032.248-.2.248h-3.09v1.227c0,.5.248.646.7.646h2.842c.183,0,.215.043.215.259v.915c0,.172-.043.248-.215.248" transform="translate(-220.272 -182.018)" fill="#fff"/>
    <path id="Path_14401" data-name="Path 14401" d="M314.824,239.2h-2.466l-.42,1.367c-.043.14-.1.2-.3.2h-1.26c-.151,0-.183-.108-.151-.215l2.24-6.751a.679.679,0,0,1,.786-.592h.646c.484,0,.667.065.84.592l2.24,6.751a.147.147,0,0,1-.14.215h-1.281c-.161,0-.269-.021-.312-.172Zm-2.078-1.335h1.69l-.409-1.367-.4-1.54h-.065l-.409,1.54Z" transform="translate(-242.061 -181.979)" fill="#fff"/>
    <path id="Path_14402" data-name="Path 14402" d="M351.494,236.475h-.065l-.442,1-.893,1.981c-.162.366-.28.474-.614.474h-.592c-.355,0-.431-.108-.6-.474l-.668-1.4-.668-1.454h-.065V240.6c0,.194-.065.216-.247.216h-1.1c-.161,0-.247-.022-.247-.216v-6.579c0-.549.183-.754.689-.754h.625c.4,0,.549.129.721.506L348.5,236.4l.667,1.529h.043l.732-1.68,1.1-2.455a.715.715,0,0,1,.787-.527h.527c.463,0,.689.161.689.7V240.6c0,.194-.065.216-.247.216h-1.066c-.161,0-.237-.022-.237-.216Z" transform="translate(-269.431 -182.018)" fill="#fff"/>
    <path id="Path_14403" data-name="Path 14403" d="M417.441,240.815H416.3c-.172,0-.248-.054-.248-.226v-5.33a1.808,1.808,0,0,1,1.981-1.992h3.144c.183,0,.215.054.215.258v.915c0,.183-.054.237-.215.237h-2.789c-.56,0-.7.28-.7.668v.99h3.058c.172,0,.2.043.2.258v.84c0,.172-.043.248-.2.248h-3.058v2.908c0,.194-.033.226-.248.226" transform="translate(-324.645 -182.018)" fill="#fff"/>
    <path id="Path_14404" data-name="Path 14404" d="M446.51,240.551c-2.229,0-3.3-1.41-3.3-3.876,0-2.423,1.271-3.9,3.327-3.9,2.24,0,3.349,1.486,3.349,3.866,0,2.455-1.055,3.909-3.381,3.909m.043-6.31c-1.1,0-1.626,1.077-1.626,2.369,0,1.508.388,2.466,1.637,2.466s1.615-1.141,1.615-2.4c-.011-1.3-.312-2.434-1.626-2.434" transform="translate(-345.841 -181.636)" fill="#fff"/>
    <path id="Path_14405" data-name="Path 14405" d="M481.646,240.551c-2.229,0-3.3-1.41-3.3-3.876,0-2.423,1.271-3.9,3.327-3.9,2.24,0,3.349,1.486,3.349,3.866,0,2.455-1.055,3.909-3.381,3.909m.043-6.31c-1.1,0-1.626,1.077-1.626,2.369,0,1.508.388,2.466,1.637,2.466s1.615-1.141,1.615-2.4c-.011-1.3-.312-2.434-1.626-2.434" transform="translate(-373.257 -181.636)" fill="#fff"/>
    <path id="Path_14406" data-name="Path 14406" d="M517.1,234.716h-1.949v5.911c0,.183-.043.226-.259.226h-1.152c-.172,0-.248-.054-.248-.226v-5.911h-1.906c-.151,0-.2-.065-.2-.215v-.958c0-.183.043-.226.2-.226H517.1c.172,0,.215.043.215.226v.958c0,.151-.065.215-.215.215" transform="translate(-399.03 -182.056)" fill="#fff"/>
    <path id="Path_14407" data-name="Path 14407" d="M547.331,236.69a1.882,1.882,0,0,1,1.152,1.831,2.369,2.369,0,0,1-2.574,2.294h-2.7c-.517,0-.646-.194-.646-.657v-6.224c0-.452.129-.667.646-.667h2.638c1.3,0,2.315.549,2.315,1.906a1.7,1.7,0,0,1-.829,1.443Zm-3.133-.56h1.464a.711.711,0,0,0,.808-.743.669.669,0,0,0-.754-.689H544.2Zm1.551,1.314H544.2v1.927h1.551a.967.967,0,1,0,0-1.927" transform="translate(-423.36 -182.017)" fill="#fff"/>
    <path id="Path_14408" data-name="Path 14408" d="M576.688,239.2h-2.466l-.42,1.367c-.043.14-.1.2-.3.2h-1.26c-.151,0-.183-.108-.151-.215l2.24-6.751a.679.679,0,0,1,.786-.592h.646c.484,0,.667.065.84.592l2.24,6.751a.147.147,0,0,1-.14.215H577.42c-.161,0-.269-.021-.312-.172Zm-2.078-1.335h1.69l-.409-1.367-.4-1.54h-.065l-.409,1.54Z" transform="translate(-446.393 -181.979)" fill="#fff"/>
    <path id="Path_14409" data-name="Path 14409" d="M606.273,238.834v-5.341c0-.172.075-.226.247-.226h1.141c.216,0,.259.043.259.226v5.222c0,.549.291.689.722.689h2.735c.162,0,.2.032.2.226v.958c0,.162-.054.226-.2.226h-3.112a1.775,1.775,0,0,1-1.992-1.981" transform="translate(-473.075 -182.018)" fill="#fff"/>
    <path id="Path_14410" data-name="Path 14410" d="M634.508,238.834v-5.341c0-.172.075-.226.248-.226H635.9c.216,0,.259.043.259.226v5.222c0,.549.291.689.721.689h2.735c.162,0,.2.032.2.226v.958c0,.162-.054.226-.2.226H636.5a1.776,1.776,0,0,1-1.992-1.981" transform="translate(-495.107 -182.018)" fill="#fff"/>
  </g>
</svg>
